<svg width="46" height="64" xmlns="http://www.w3.org/2000/svg">
<path d="M39.8002 0H6.02665C1.38807 0 0 3.49079 0 5.72861V60.0004C0 62.6744 1.34476 63.4634 2.0821 63.7696C2.81842 64.077 4.76955 64.2956 6.15555 62.8931C6.15555 62.8931 22.1977 43.9613 22.4576 43.655C22.7185 43.3488 22.8495 43.3127 23.0227 43.3127H33.1662C37.5026 43.3127 38.3245 40.3262 38.802 38.4823C39.1928 36.9478 43.6571 15.0769 45.0462 8.14897C46.0867 2.80089 44.742 0 39.8002 0ZM37.8058 9.30088L36.2888 16.8909C36.1155 17.6798 35.3782 18.5626 34.4666 18.5626H21.2871C19.8125 18.5626 18.5626 19.3164 18.5626 20.8076V22.4308C18.5626 23.921 19.8125 24.7511 21.2871 24.7511H32.4298C33.4704 24.7511 34.3377 25.9587 34.1211 27.0539C33.9045 28.1934 32.733 33.986 32.6041 34.5996C32.5154 35.2565 31.8235 36.0939 30.7819 36.0939H21.678C19.7702 36.0939 19.3793 36.2774 18.2532 37.6789C17.125 39.0825 7.2724 51.7545 7.2724 51.7545C7.18578 51.8855 7.21878 51.8896 7.21878 51.7576V8.83991C7.21878 7.83134 7.8035 7.21878 8.80072 7.21878H36.1578C37.1117 7.21878 38.0656 8.07369 37.8058 9.30088Z" fill="white"/>
</svg>
